<svg width="44" height="44" viewBox="0 0 44 44" fill="none" xmlns="http://www.w3.org/2000/svg">
<path d="M0 44V39.1111H44V44H0ZM5.92778 20.5333C4.7463 19.4333 3.88056 18.1296 3.33056 16.6222C2.78056 15.1148 2.50556 13.5667 2.50556 11.9778C2.50556 8.67778 3.63611 5.85648 5.89722 3.51389C8.15833 1.1713 10.9185 0 14.1778 0C15.6444 0 17.05 0.264815 18.3944 0.794444C19.7389 1.32407 20.9407 2.09815 22 3.11667C23.0593 2.09815 24.2611 1.32407 25.6056 0.794444C26.95 0.264815 28.3556 0 29.8222 0C33.1222 0 35.9028 1.18148 38.1639 3.54444C40.425 5.90741 41.5556 8.73889 41.5556 12.0389C41.5556 13.6278 41.2602 15.1454 40.6694 16.5917C40.0787 18.038 39.2333 19.3315 38.1333 20.4722L25.3611 32.8778C24.913 33.3259 24.4037 33.662 23.8333 33.8861C23.263 34.1102 22.6519 34.2222 22 34.2222C21.3481 34.2222 20.737 34.1102 20.1667 33.8861C19.5963 33.662 19.087 33.3259 18.6389 32.8778L5.92778 20.5333Z" fill="#FF0061"/>
</svg>
