<svg width="96" height="96" viewBox="0 0 96 96" fill="none" xmlns="http://www.w3.org/2000/svg">
<rect width="96" height="95.2381" rx="47.619" fill="#FFE179"/>
<path d="M54.8571 48.7619L48.5333 42.5905C47.746 41.8286 47.0794 40.9841 46.5333 40.0571C45.9873 39.1302 45.7143 38.1206 45.7143 37.0286C45.7143 35.6317 46.2032 34.4444 47.181 33.4667C48.1587 32.4889 49.346 32 50.7429 32C51.5556 32 52.3175 32.1714 53.0286 32.5143C53.7397 32.8571 54.3492 33.3206 54.8571 33.9048C55.3651 33.3206 55.9746 32.8571 56.6857 32.5143C57.3968 32.1714 58.1587 32 58.9714 32C60.3683 32 61.5556 32.4889 62.5333 33.4667C63.5111 34.4444 64 35.6317 64 37.0286C64 38.1206 63.7333 39.1302 63.2 40.0571C62.6667 40.9841 62.0064 41.8286 61.219 42.5905L54.8571 48.7619ZM54.8571 44.4952L59.0095 40.419C59.4921 39.9365 59.9365 39.4222 60.3429 38.8762C60.7492 38.3302 60.9524 37.7143 60.9524 37.0286C60.9524 36.4698 60.7619 36 60.381 35.619C60 35.2381 59.5302 35.0476 58.9714 35.0476C58.6159 35.0476 58.2794 35.1175 57.9619 35.2571C57.6444 35.3968 57.3714 35.6063 57.1429 35.8857L54.8571 38.6286L52.5714 35.8857C52.3429 35.6063 52.0698 35.3968 51.7524 35.2571C51.4349 35.1175 51.0984 35.0476 50.7429 35.0476C50.1841 35.0476 49.7143 35.2381 49.3333 35.619C48.9524 36 48.7619 36.4698 48.7619 37.0286C48.7619 37.7143 48.9651 38.3302 49.3714 38.8762C49.7778 39.4222 50.2222 39.9365 50.7048 40.419L54.8571 44.4952ZM41.1429 57.1429L51.7333 60.0381L60.8 57.219C60.673 56.9905 60.4889 56.7937 60.2476 56.6286C60.0063 56.4635 59.7333 56.381 59.4286 56.381H51.7333C51.0476 56.381 50.5016 56.3556 50.0952 56.3048C49.6889 56.254 49.2698 56.1524 48.8381 56L45.2952 54.819L46.1333 51.8476L49.219 52.8762C49.6508 53.0032 50.1587 53.1048 50.7429 53.181C51.327 53.2571 52.1905 53.3079 53.3333 53.3333C53.3333 53.054 53.2508 52.7873 53.0857 52.5333C52.9206 52.2794 52.7238 52.1143 52.4952 52.0381L43.581 48.7619H41.1429V57.1429ZM32 62.4762V45.7143H43.581C43.7587 45.7143 43.9365 45.7333 44.1143 45.7714C44.2921 45.8095 44.4571 45.854 44.6095 45.9048L53.5619 49.219C54.4 49.5238 55.0794 50.0571 55.6 50.819C56.1206 51.581 56.381 52.419 56.381 53.3333H59.4286C60.6984 53.3333 61.7778 53.7524 62.6667 54.5905C63.5556 55.4286 64 56.5333 64 57.9048V59.4286L51.8095 63.2381L41.1429 60.2667V62.4762H32ZM35.0476 59.4286H38.0952V48.7619H35.0476V59.4286Z" fill="#504211"/>
</svg>
