<svg width="46" height="50" viewBox="0 0 46 50" fill="none" xmlns="http://www.w3.org/2000/svg">
<path d="M38.3333 50.0054C36.2037 50.0054 34.3935 49.2762 32.9028 47.8179C31.412 46.3595 30.6667 44.5887 30.6667 42.5054C30.6667 42.2137 30.688 41.9116 30.7306 41.5991C30.7731 41.2866 30.837 41.0054 30.9222 40.7554L12.9056 30.5054C12.1815 31.1304 11.3722 31.62 10.4778 31.9741C9.58333 32.3283 8.6463 32.5054 7.66667 32.5054C5.53704 32.5054 3.72685 31.7762 2.23611 30.3179C0.74537 28.8595 0 27.0887 0 25.0054C0 22.922 0.74537 21.1512 2.23611 19.6929C3.72685 18.2345 5.53704 17.5054 7.66667 17.5054C8.6463 17.5054 9.58333 17.6825 10.4778 18.0366C11.3722 18.3908 12.1815 18.8804 12.9056 19.5054L30.9222 9.25537C30.837 9.00537 30.7731 8.72412 30.7306 8.41162C30.688 8.09912 30.6667 7.79704 30.6667 7.50537C30.6667 5.42204 31.412 3.6512 32.9028 2.19287C34.3935 0.734538 36.2037 0.00537109 38.3333 0.00537109C40.463 0.00537109 42.2731 0.734538 43.7639 2.19287C45.2546 3.6512 46 5.42204 46 7.50537C46 9.5887 45.2546 11.3595 43.7639 12.8179C42.2731 14.2762 40.463 15.0054 38.3333 15.0054C37.3537 15.0054 36.4167 14.8283 35.5222 14.4741C34.6278 14.12 33.8185 13.6304 33.0944 13.0054L15.0778 23.2554C15.163 23.5054 15.2269 23.7866 15.2694 24.0991C15.312 24.4116 15.3333 24.7137 15.3333 25.0054C15.3333 25.297 15.312 25.5991 15.2694 25.9116C15.2269 26.2241 15.163 26.5054 15.0778 26.7554L33.0944 37.0054C33.8185 36.3804 34.6278 35.8908 35.5222 35.5366C36.4167 35.1825 37.3537 35.0054 38.3333 35.0054C40.463 35.0054 42.2731 35.7345 43.7639 37.1929C45.2546 38.6512 46 40.422 46 42.5054C46 44.5887 45.2546 46.3595 43.7639 47.8179C42.2731 49.2762 40.463 50.0054 38.3333 50.0054ZM38.3333 10.0054C39.0574 10.0054 39.6644 9.76579 40.1542 9.28662C40.644 8.80746 40.8889 8.2137 40.8889 7.50537C40.8889 6.79704 40.644 6.20329 40.1542 5.72412C39.6644 5.24495 39.0574 5.00537 38.3333 5.00537C37.6093 5.00537 37.0023 5.24495 36.5125 5.72412C36.0227 6.20329 35.7778 6.79704 35.7778 7.50537C35.7778 8.2137 36.0227 8.80746 36.5125 9.28662C37.0023 9.76579 37.6093 10.0054 38.3333 10.0054ZM7.66667 27.5054C8.39074 27.5054 8.99769 27.2658 9.4875 26.7866C9.97731 26.3075 10.2222 25.7137 10.2222 25.0054C10.2222 24.297 9.97731 23.7033 9.4875 23.2241C8.99769 22.745 8.39074 22.5054 7.66667 22.5054C6.94259 22.5054 6.33565 22.745 5.84583 23.2241C5.35602 23.7033 5.11111 24.297 5.11111 25.0054C5.11111 25.7137 5.35602 26.3075 5.84583 26.7866C6.33565 27.2658 6.94259 27.5054 7.66667 27.5054ZM38.3333 45.0054C39.0574 45.0054 39.6644 44.7658 40.1542 44.2866C40.644 43.8075 40.8889 43.2137 40.8889 42.5054C40.8889 41.797 40.644 41.2033 40.1542 40.7241C39.6644 40.245 39.0574 40.0054 38.3333 40.0054C37.6093 40.0054 37.0023 40.245 36.5125 40.7241C36.0227 41.2033 35.7778 41.797 35.7778 42.5054C35.7778 43.2137 36.0227 43.8075 36.5125 44.2866C37.0023 44.7658 37.6093 45.0054 38.3333 45.0054Z" fill="#04402E"/>
</svg>
