<svg width="14" height="14" viewBox="0 0 14 14" fill="none" xmlns="http://www.w3.org/2000/svg">
<circle cx="7" cy="7" r="7" fill="black"/>
<path d="M5.31641 10.3086C5.31641 10.2109 5.33984 10.0566 5.38672 9.8457C5.41406 9.72461 5.45508 9.56445 5.50977 9.36523L6.23047 6.66992C6.23828 6.63867 6.24414 6.60742 6.24805 6.57617C6.25586 6.54492 6.25977 6.51562 6.25977 6.48828C6.25977 6.32812 6.20898 6.22852 6.10742 6.18945C6.00586 6.15039 5.82031 6.125 5.55078 6.11328V5.79688C5.77734 5.78125 6.10547 5.75 6.53516 5.70312C6.96875 5.65234 7.27539 5.60938 7.45508 5.57422L7.9707 5.47461L7.03906 8.89062C6.96094 9.18359 6.9082 9.38672 6.88086 9.5C6.81055 9.78906 6.77539 9.97656 6.77539 10.0625C6.77539 10.1484 6.79492 10.2051 6.83398 10.2324C6.87305 10.2559 6.91602 10.2676 6.96289 10.2676C7.08398 10.2676 7.23438 10.1641 7.41406 9.95703C7.59375 9.75 7.75195 9.5332 7.88867 9.30664L8.15234 9.47656C7.76172 10.0508 7.46289 10.4375 7.25586 10.6367C6.91602 10.9648 6.55273 11.1289 6.16602 11.1289C5.94727 11.1289 5.75 11.0625 5.57422 10.9297C5.40234 10.793 5.31641 10.5859 5.31641 10.3086ZM7.63672 2.79688C7.85938 2.79688 8.04883 2.875 8.20508 3.03125C8.36133 3.1875 8.43945 3.37695 8.43945 3.59961C8.43945 3.82227 8.36133 4.01367 8.20508 4.17383C8.04883 4.33008 7.85938 4.4082 7.63672 4.4082C7.41406 4.4082 7.22266 4.33008 7.0625 4.17383C6.90625 4.01367 6.82812 3.82227 6.82812 3.59961C6.82812 3.37695 6.90625 3.1875 7.0625 3.03125C7.22266 2.875 7.41406 2.79688 7.63672 2.79688Z" fill="white"/>
</svg>
